<svg xmlns="http://www.w3.org/2000/svg" version="1.1" fill="gold" viewBox="0.0 5.0 90.0 90.0">
 <path d="m42.602 9.3984-4.1523 11.391c-0.44922 1.2812-1.6406 2.1523-3 2.1914l-12.129 0.42969c-0.39453 0.011719-0.73437 0.27344-0.85547 0.64844-0.11719 0.375 0.011718 0.78516 0.32422 1.0195l9.5508 7.4688v0.003906c1.082 0.82031 1.543 2.2266 1.1602 3.5273l-3.3594 11.66c-0.082031 0.37109 0.066406 0.75781 0.375 0.97656 0.3125 0.21875 0.72266 0.22656 1.043 0.023437l10.062-6.7383c1.1172-0.76953 2.5977-0.76953 3.7188 0l10.059 6.7812c0.32422 0.20312 0.73437 0.19141 1.0469-0.027344 0.30859-0.21875 0.45703-0.60156 0.375-0.97266l-3.3516-11.703c-0.38281-1.3008 0.078125-2.707 1.1602-3.5273l9.5508-7.4688v-0.003906c0.3125-0.23438 0.44141-0.64453 0.32422-1.0195-0.11719-0.375-0.46094-0.63672-0.85547-0.64844l-12.129-0.41016c-1.3555-0.039062-2.5508-0.91016-3-2.1914l-4.1602-11.41c-0.13672-0.36328-0.48828-0.60938-0.87891-0.60938s-0.74219 0.24609-0.87891 0.60938zm24.547 72.543 14.441-14.441-19-11c-2.2656-1.3594-5.0391-1.5781-7.4883-0.58984l-5.5 2.1406c-0.13672 0.046875-0.27734 0.070313-0.42187 0.070313h-13.109c-1.8789 0.097656-3.3516 1.6523-3.3516 3.5352 0 1.8789 1.4727 3.4336 3.3516 3.5352h18.059c0.66406 0 1.1992 0.53516 1.1992 1.1992s-0.53516 1.1992-1.1992 1.1992h-18.059c-1.9531-0.003906-3.7812-0.96484-4.8867-2.5742-1.1055-1.6094-1.3516-3.6602-0.65234-5.4844l-16-7.8594c-2.2891-1.25-5.1523-0.5-6.5312 1.707-1.3008 2.2734-0.52344 5.168 1.7383 6.4805l28.5 16.461c1.7539 1.0352 3.707 1.6758 5.7305 1.8789l17.141 1.8789c2.1328 0.21094 4.2031 0.84375 6.0898 1.8633zm18-14.609v-0.003906c0.60937-0.59766 1.5859-0.59766 2.1914 0l4.8789 4.8789v0.003907c0.60156 0.60547 0.60156 1.582 0 2.1875l-17.699 17.723c-0.60547 0.59766-1.582 0.59766-2.1914 0l-4.8906-4.8906h0.003906c-0.60156-0.60938-0.60156-1.582 0-2.1914l17.719-17.711zm-48.41-48.832-0.53906 1.5c-0.12109 0.36328-0.45703 0.60938-0.83984 0.60938l-12.121 0.39062c-1.4297 0.007812-2.6953 0.93359-3.1367 2.2969-0.44141 1.3633 0.042969 2.8555 1.1992 3.7031l9.5586 7.4688c0.30859 0.23438 0.4375 0.63281 0.32031 1l-0.35156 1.2305-4.5273-3.0977c-1.125-0.77344-2.6055-0.77344-3.7305 0l-7.1211 4.8086c-0.32031 0.21484-0.73828 0.21094-1.0547-0.011718-0.3125-0.22266-0.45703-0.61328-0.36328-0.98828l2.3711-8.2617h-0.003906c0.38281-1.3047-0.078126-2.7109-1.1602-3.5391l-6.7695-5.3281c-0.3125-0.23828-0.44141-0.64844-0.32422-1.0234 0.12109-0.375 0.46094-0.63281 0.85547-0.64844l8.5898-0.30078c1.3555-0.042969 2.543-0.91016 3-2.1875l2.9414-8.0703c0.13281-0.37109 0.48047-0.61719 0.875-0.61719 0.39062 0 0.74219 0.24609 0.875 0.61719l2.9414 8.0703h-0.003906c0.45312 1.2812 1.6445 2.1484 3 2.1875l5.4688 0.19141zm19.391 18.16-0.35156-1.2305h0.003906c-0.11719-0.36719 0.011719-0.76953 0.32031-1l9.5586-7.4297c1.1562-0.84766 1.6406-2.3398 1.1992-3.7031s-1.707-2.2891-3.1406-2.2969l-12.117-0.41016c-0.38281 0-0.72266-0.24609-0.83984-0.60938l-0.53906-1.4805 5.4688-0.19141c1.3555-0.039063 2.5469-0.90625 3-2.1875l2.9414-8.0703h-0.003906c0.13281-0.37109 0.48438-0.61719 0.875-0.61719 0.39453 0 0.74219 0.24609 0.875 0.61719l2.9414 8.0703c0.45313 1.2773 1.6445 2.1484 3 2.1875l8.5898 0.30078c0.38672 0.023437 0.72266 0.28125 0.84375 0.64844 0.12109 0.37109 0 0.77734-0.30469 1.0234l-6.7812 5.2891h0.003906c-1.0781 0.83203-1.5352 2.2344-1.1523 3.5391l2.3711 8.2617c0.09375 0.37109-0.050781 0.76562-0.36719 0.98828-0.31641 0.21875-0.73438 0.22656-1.0547 0.011719l-7.0781-4.7695c-1.125-0.77344-2.6055-0.77344-3.7305 0z" fill-rule="evenodd"/>
</svg>