<svg xmlns="http://www.w3.org/2000/svg" version="1.1" viewBox="0 0 24 24"><path fill="#Ffd700" d="M12,4.6195374l2.0177612,4.7750244l0.2347412,0.5555115l0.6008606,0.0515747l5.1649017,0.4434204l-3.9178009,3.3946228  l-0.4557648,0.3948975l0.1365967,0.5874023l1.1742706,5.0491638l-4.4391479-2.677063L12,16.8826599l-0.5164185,0.3114319  l-4.4391479,2.677063l1.1742706-5.0491638l0.1365967-0.5874023l-0.4557648-0.3948975l-3.9178009-3.3946228l5.1649017-0.4434204  l0.6008606-0.0515747l0.2347412-0.5555115L12,4.6195374 M12,2.050415l-2.9389038,6.954895l-7.5227051,0.645874l5.7062988,4.9442749  l-1.7103271,7.354126L12,18.050415l6.4656372,3.8991699l-1.7103271-7.354126l5.7062988-4.9442749l-7.5227051-0.645874L12,2.050415  L12,2.050415z"/></svg>